<svg version="1.1" xmlns="http://www.w3.org/2000/svg" xmlns:xlink="http://www.w3.org/1999/xlink" x="0" y="0" width="510.236" height="467.717" viewBox="0 0 510.236 467.717" xml:space="preserve"><path fill="#D1D3D4" d="M255.118 92.18L83.92 388.049h342.396z"/><path fill="#6D6E71" d="M375.506 395.354v5.97H134.73v-5.97l-19.107 11.702 19.107 12.177v-5.969h240.776v5.969l19.106-11.701z"/><path fill="#939598" d="M261.088 238.042v-117.49h5.97l-11.701-9.323-12.179 9.323h5.97v117.49zM295.363 318.778l101.749 58.745-2.984 5.17 13.925-5.471-1.986-15.208-2.984 5.17-101.749-58.746zM215.39 318.778l-101.749 58.745 2.984 5.17-13.924-5.471 1.985-15.208 2.984 5.17 101.749-58.746z"/><defs><path id="a" d="M0 0h510.236v467.717H0z"/></defs><clipPath id="b"><use xlink:href="#a" overflow="visible"/></clipPath><path clip-path="url(#b)" fill="#8A8C8E" d="M249.083 279.479s.299.047.69-.111l.473.652-3.066 3.665-.645-.439.101-.147c.527-1.139 2.447-3.62 2.447-3.62m1.305-.53c.309-.306.53-.659.53-.659s.323.018.781-.096l-.909 1.072-.402-.317zm12.085-13.488c1.863-1.958 10.789-14.358 10.789-14.358s.59-1.438 0-2.039c-.897-.916-1.981-.196-2.804.341-.822.536-8.304 8.175-10.877 11.059-1.989 2.231-11.977 15.023-11.977 15.023l-.798-.493s2.803-2.65 3.602-7.578-.034-17.043-.17-17.501c-.136-.459-.288-.697-.731-.697-.442 0-.577.34-.713.697-.136.355-2.337 11.719-2.804 14.018-.934 4.605-.765 10.688-.765 10.688s-.832-.17-2.378.236a4.555 4.555 0 0 0-.777.29l-1.56-2.847.27 3.819c-.277.32-.485.661-.652.98a5.185 5.185 0 0 0-.374.984l-2.897-4.552-.849 12.445-14.613 6.16-1.954.425 1.996-.213 14.953-6.073.849-10.79 2.313 3.552-.002.016s.272.188-1.036.425c-1.309.238-1.445.986-1.445 1.427.187 1.36.986 2.158.986 2.158l.799 13.288.017-13.101.254.034c1.207-.595 1.53-1.988 1.53-1.988l.34-.102s.611 2.005 1.597 2.446c.395.178.771.279 1.084.339l-.617 8.838-10.195 16.396-1.274 1.911 1.486-1.444 10.62-16.693.733-8.922h.032l.17-.021v1.296l1.019.298 1.36-.765 3.653-4.333 9.558 9.982 18.182 10.025-17.842-10.45-9.447-10.096 2.651-2.771.219-.097 13.969 5.402 12.106-11.726-12.149 11.131-12.881-5.219c.972-.344 2.099-.639 3.213-.712 2.328-.152 5.913.832 6.1.663.178-.161.533-3.379-4.96-3.854l4.578-1.84 1.274-3.313.17-1.827-.382 1.699-1.445 3.101-5.522 2.124c-4.209-.029-7.9 2.975-7.9 2.975h-1.189c-.002.004 11.642-8.318 13.507-10.276M38.23 386.539l-.559.527s-.491-.013-.957-.097-1.237-.335-1.237-.335.654-.144 1.418-.164a8.482 8.482 0 0 1 1.335.069m40.835-1.914c-.169-.687-8.751-7.262-14.822-8.531-6.218-1.008-9.339 1.984-11.141 2.897-1.547 1.057-8.05 6.895-8.05 6.895s1.113-3.201-2.394-5.052c-8.773-3.611-15.386.201-16.831 3.02-4.148 7.95 6.74 11.495 8.124 11.999 12.495 3.293 22.177-8.137 23.219-9.371 1.654-1.959 1.243-2.266 2.674-4.045 1.083-.964 2.761-.98 4.339-.72 4.854 2.028 13.09 4.817 13.665 4.817.574 0 .616.172 1.103-.592.487-.763.283-.631.114-1.317"/><path clip-path="url(#b)" fill="#B1B3B6" d="M38.23 386.539l-.559.527s-.491-.013-.957-.097-1.517-.427-1.517-.427-10.237-4.614 1.046-5.892c12.441.715 1.987 5.889 1.987 5.889m40.835-1.914c-.169-.687-8.751-7.262-14.822-8.531-6.218-1.008-9.339 1.984-11.141 2.897-1.547 1.057-8.05 6.895-8.05 6.895s1.113-3.201-2.394-5.052c-8.773-3.611-15.386.201-16.831 3.02-2.493 4.695.814 8.427 1.224 7.407 1.084-2.688 2.143-4.447 6.085-3.796 12.495 3.294 13.196 1.511 22.568-6.576 1.654-1.959 2.709 3.327 4.14 1.548 1.083-.964.291-5.106 1.869-4.846 11.472.357 15.56 8.943 16.135 8.943.574 0 .616.172 1.103-.592.487-.763.283-.631.114-1.317"/><path clip-path="url(#b)" fill="#8A8C8E" d="M77.938 386.362c.094.078.42-.157.729-.524.309-.368.484-.731.39-.81-.093-.079-.419.156-.729.525-.309.369-.484.731-.39.809M259.413 27.917a4.295 4.295 0 1 0-8.59-.001 4.295 4.295 0 0 0 8.59.001m3.562 12.597c0 .327-2.782 4.336-2.782 4.336l.246-6.382c-.001 0 2.536 1.719 2.536 2.046m-12.932 4.336s-2.782-4.009-2.782-4.336c0-.328 2.536-2.046 2.536-2.046l.246 6.382zm16.531-4.5c0-1.718-6.545-7.036-6.545-7.036h-9.823s-6.545 5.318-6.545 7.036 5.728 6.791 5.728 6.791h.408s-3.109 21.681-.163 21.681c2.945 0 4.745-19.472 4.745-19.472l.739-.082.738.082s1.8 19.472 4.746 19.472c2.945 0-.164-21.681-.164-21.681h.408c.001 0 5.728-5.073 5.728-6.791M437.324 382.562c15.373 0-.299-1.256 6.947-1.293 5.174-.027 12.564.037 12.564.037s2.241.063 3.388.438c1.146.375-3.601.721-2.278.893 2.278.296 6.208-.148 12.712-.296s14.095.494 15.373 1.183c1.922 1.035-5.543.221-4.582.813.961.591 10.125.442 12.028 1.552.779.454-7.668 1.478-7.668 1.478s3.622.813 7.244 2.217c3.621 1.405-17.147 2.439-17.147 2.439l-7.761.518s-3.178.665.665 1.33c.887.739-5.025-.073-6.578.888-3.621.738-23.798.296-26.681-.592-2.883-.887 5.174-2.144 5.174-2.144s-13.821-1.108-13.378-2.513c.443-1.626 13.082-1.034 14.19-1.626s-16.667-.628-13.82-1.699c14.153-1.739 4.952-2.514 9.608-3.623"/><path clip-path="url(#b)" fill="#B1B3B6" d="M446.138 384.483c2.052-.296 6.349-.005 3.492-.296-3.694-.375-4.835-.335-3.492-.96 1.35-.63-3.895.792-3.64.794 5.913.056-.37.462 3.64.462M455.012 387.809c3.513-.506 10.871-.009 5.98-.506-6.329-.644-7.711-.51-5.967-1.156 2.291-.851-9.275.713-6.248.871 10.114.532-.632.791 6.235.791M446.728 391.275c3.514-.506 10.871-.009 5.981-.506-6.329-.644-7.711-.51-5.967-1.157 2.291-.85-9.275.713-6.248.872 10.113.533-.633.791 6.234.791M470.934 390.537c3.513-.507 10.871-.01 5.98-.507-6.329-.644-7.711-.51-5.967-1.156 2.291-.851-9.275.713-6.248.872 10.114.531-.633.791 6.235.791M467.315 385.518c2.533-.365 7.838-.006 4.312-.365-4.563-.464-5.56-.366-4.302-.834 1.652-.612-6.688.515-4.505.63 7.292.382-.456.569 4.495.569M470.458 381.416l-1.574-1.574s-.034-.543.569-.951c.603-.407 1.005-.108 1.005-.108s-.173-.212.097-.532c.27-.321.479-.133.479-.133s.209-.302.684-.183c.476.119.497.484.497.484s.532-.024.812.472c.277.497-.085.951-.085.951l.878-.03s-.315-.305-.092-.774c.225-.471.606-.376.606-.376s.096-.348.762-.46c.667-.112.842.188.842.188s.117-.424.733-.406c.615.019.668.406.668.406s.651.078 1.124.515c.472.437.532 1.029.532 1.029s.242-.374.763-.399c.521-.026.781.309.781.309s-.371-.272-.006-.757c.366-.485.723-.184.723-.184s-.19-.332.028-.615c.218-.284.751-.036.751-.036s.217-.474.629-.376c.592.14.735.591.735.591s.313-.135.523-.058c.364.133.356.358.356.358s.23-.179.648.138c.448.34.031.773.485.605.454-.169.878.696.878 1.12s-.424.661-.424.661l-15.407.125z"/><path clip-path="url(#b)" fill="#B1B3B6" d="M456.984 381.416l-1.922-1.922s-.042-.663.695-1.16 1.227-.133 1.227-.133-.211-.26.118-.65c.329-.392.584-.163.584-.163s.255-.367.835-.222.606.591.606.591.65-.029.991.577c.34.605-.104 1.16-.104 1.16l1.072-.037s-.384-.372-.111-.946c.274-.574.739-.458.739-.458s.118-.424.931-.562c.814-.138 1.028.229 1.028.229s.143-.518.894-.496c.751.023.816.496.816.496s.795.094 1.372.628c.576.533.649 1.256.649 1.256s.296-.456.932-.487.954.377.954.377-.454-.331-.009-.925c.447-.592.884-.223.884-.223s-.233-.405.033-.752c.268-.347.916-.044.916-.044s.267-.577.77-.459c.723.17.896.722.896.722s.384-.166.641-.07c.443.162.435.438.435.438s.281-.219.792.168c.547.414.037.945.592.739s1.071.85 1.071 1.367-.517.807-.517.807l-18.81.154z"/><path clip-path="url(#b)" fill="#8A8C8E" d="M475.092 381.783l1.22-.4v-4.064l-1.367-1.33-.518-.813-1.146-.813s-1.146.332-1.553-.111c-.405-.444-.362-1.146-.362-1.146s-1.968.076-2.594-.295c-1.183-.703-.48-1.737-.48-1.737s-1.87-.02-1.183-1.068c.776-1.182 3.621-1.777 3.621-1.777s.407-1.072 2.365-1.7c1.959-.628 2.772-.258 2.772-.258s.147-.37 1.293-.186c1.146.186 2.069 1.042 2.069 1.042s1.257-.524 3.104-.266 2.328 1.663 2.328 1.663 1.44-.074 2.144 1.219c.702 1.294-.775 2.144-.775 2.144s.517 1.22-.961 1.773c-1.479.555-3.031-.036-3.031-.036l-2.217.886-.592 1.405-1.644 1.182v4.287l1.237.4h-3.73z"/><path fill="#6D6E71" d="M199.048 131.129l5.17 2.985L83.83 342.632l-5.17-2.986.58 22.398 20.1-10.457-5.17-2.985 120.388-208.518 5.17 2.985-.58-22.397zM311.188 131.129l-5.169 2.985 120.387 208.518 5.17-2.986-.58 22.398-20.1-10.457 5.17-2.985-120.387-208.518-5.17 2.985.58-22.397z"/><g><defs><path id="c" d="M0 0h510.236v467.717H0z"/></defs><clipPath id="d"><use xlink:href="#c" overflow="visible"/></clipPath><path clip-path="url(#d)" d="M270.917 309.567c1.168 0 1.337.329 1.337 1.327 0 .68.063 1.167.128 1.336h2.534v-.231c-.298 0-.266-.34-.266-1.337 0-1.539-.488-1.73-1.294-2.026.892-.244 1.283-.987 1.283-1.868 0-1.484-.838-2.174-3.383-2.174h-3.607v7.637h2.503v-2.663h.765zm-.765-3.192h1.167c.584 0 1.009.255 1.009.797 0 .53-.413.722-1.188.722h-.987v-1.519zm-7.574-1.982c-2.376 0-3.998 1.559-3.998 3.956 0 2.6 1.601 4.084 3.998 4.084 2.261 0 4.01-1.463 4.01-4.063 0-2.016-1.283-3.977-4.01-3.977m-.02 1.866c1.104-.032 1.528 1.071 1.528 2.111 0 1.263-.425 2.196-1.508 2.196-1.198 0-1.495-1.22-1.495-2.196 0-.965.339-2.111 1.475-2.111m-11.722.339h2.249v5.633h2.502v-5.633h2.249v-2.004h-7v2.004zm-.701.913c-.201-1.963-1.506-3.118-3.84-3.118-2.132 0-3.807 1.537-3.807 4.009 0 2.483 1.527 4.031 4.051 4.031 2.016 0 3.426-1.188 3.649-3.161h-2.408c-.095.732-.477 1.295-1.283 1.295-1.273 0-1.507-1.008-1.507-2.08 0-1.475.531-2.228 1.411-2.228.785 0 1.284.456 1.358 1.252h2.376zm-8.36 4.719v-1.78h-3.872v-1.2h3.151v-1.781h-3.151v-1.094h3.724v-1.781h-6.226v7.637h6.374zm-12.59 0h2.514l2.651-7.637h-2.524l-1.389 5.081-1.337-5.081h-2.524l2.609 7.637zM278.179 317.324c.594 1.526.966 3.14.966 4.794 0 1.623-.425 3.225-.998 4.73h1.888c.509-1.252 1.156-2.758 1.156-4.698 0-2.153-.583-3.744-1.146-4.826h-1.866zm-7.32 4.922c0 1.898 1.378 2.874 3.16 2.874 1.783 0 3.161-.954 3.161-2.991 0-1.73-1.209-2.885-3.171-2.885-1.878 0-3.15 1.07-3.15 3.002m3.182-1.518c.573-.031.935.584.935 1.401 0 1.051-.361 1.507-.956 1.507-.563 0-.955-.456-.955-1.507-.001-.626.222-1.401.976-1.401m-4.085 2.653h-.35c-.616 0-.69-.18-.69-.689v-2.017h1.062v-1.271h-1.062v-1.729h-2.173v1.729h-.816v1.271h.784v2.324c0 1.919.351 2.121 3.245 1.962v-1.58zm-7.053-4.691h2.205v-1.568h-2.205v1.568zm2.205.713h-2.205v5.557h2.205v-5.557zm-3.383 0h-2.205v2.674c0 .858-.202 1.336-.839 1.336-.531 0-.796-.244-.796-1.008v-3.002h-2.205v3.384c0 1.591.783 2.333 1.992 2.333.913 0 1.454-.212 2.007-.976v.816h2.046v-5.557zm-7.098 0h-1.982v.826h-.022c-.328-.656-.933-.985-1.793-.985-1.591 0-2.45 1.398-2.45 2.863 0 1.974 1.156 3.013 2.407 3.013.722 0 1.179-.149 1.635-.7v2.429h2.205v-7.446zm-2.152 2.768c0 .542-.265 1.285-.913 1.285-.796 0-.977-.669-.977-1.327 0-.626.266-1.242.977-1.242.701 0 .913.701.913 1.284m-10.513 1.061c.117 1.495 1.516 1.888 2.79 1.888 2.036 0 2.991-.785 2.991-1.94 0-2.078-3.512-1.557-3.512-2.334 0-.276.244-.394.627-.394.17 0 .329.043.446.139a.575.575 0 0 1 .212.402h2.004c-.127-1.474-1.548-1.749-2.758-1.749-1.156 0-2.63.414-2.63 1.835 0 2.155 3.405 1.444 3.405 2.335 0 .392-.361.498-.7.498a.891.891 0 0 1-.542-.17.615.615 0 0 1-.233-.51h-2.1zm-7.054-.986c0 1.898 1.378 2.874 3.161 2.874 1.782 0 3.16-.954 3.16-2.991 0-1.73-1.208-2.885-3.171-2.885-1.878 0-3.15 1.07-3.15 3.002m3.182-1.518c.573-.031.934.584.934 1.401 0 1.051-.361 1.507-.955 1.507-.563 0-.956-.456-.956-1.507 0-.626.223-1.401.977-1.401m-13.684 4.233h2.205v-2.748c0-.668.127-1.23.775-1.23.584 0 .743.328.743 1.146v2.833h2.206v-2.748c0-.668.127-1.23.775-1.23.584 0 .743.328.743 1.146v2.833h2.205v-3.289c0-1.516-.509-2.428-2.131-2.428-.817 0-1.444.35-1.921 1.018-.265-.594-.816-1.018-1.813-1.018-.796 0-1.486.562-1.762.985v-.826h-2.025v5.556zm-1.093 1.888c-.594-1.526-.965-3.14-.965-4.794 0-1.623.424-3.225.997-4.73h-1.888c-.509 1.252-1.155 2.758-1.155 4.698 0 2.153.583 3.744 1.145 4.826h1.866zM264.551 73.508h2.366v5.927h2.633v-5.927h2.366V71.4h-7.365v2.108zm-.939.223c-.19-1.405-1.205-2.543-3.438-2.543-2.01 0-3.481.859-3.481 2.565 0 3.071 4.62 2.234 4.62 3.451 0 .379-.436.592-1.095.592-.257 0-.536-.067-.748-.201a.92.92 0 0 1-.436-.637h-2.521c.057 1.451 1.439 2.689 3.561 2.689 2.21 0 3.761-.903 3.761-2.767 0-2.925-4.621-2.177-4.621-3.383 0-.29.257-.458.838-.458.257 0 .491.045.681.145a.71.71 0 0 1 .381.547h2.498zm-12.121-2.543c-2.501 0-4.208 1.639-4.208 4.162 0 2.736 1.685 4.297 4.208 4.297 2.377 0 4.218-1.539 4.218-4.274 0-2.122-1.35-4.185-4.218-4.185m-.023 1.963c1.162-.034 1.608 1.127 1.608 2.222 0 1.328-.446 2.311-1.585 2.311-1.262 0-1.575-1.284-1.575-2.311 0-1.016.357-2.222 1.552-2.222m-10.515 6.285v-3.114h2.491v3.114h2.632V71.4h-2.632v2.712h-2.491V71.4h-2.633v8.035h2.633zM276.22 84.795c.625 1.607 1.016 3.303 1.016 5.044 0 1.708-.446 3.393-1.05 4.978h1.987c.535-1.317 1.216-2.902 1.216-4.944 0-2.266-.614-3.94-1.205-5.078h-1.964zm-7.551 8.035h2.319v-2.98c0-.748.19-1.206.905-1.206.659 0 .816.514.816 1.094v3.092h2.319v-3.505c0-1.606-.725-2.51-2.264-2.51-.883 0-1.453.379-1.977 1.082v-.914h-2.12v5.847zm-4.561-1.148c-.458 0-.737-.201-.737-.49 0-.757 1.006-.579 1.766-.947.055.802-.212 1.437-1.029 1.437m3.662 1.148v-.11c-.302-.245-.313-.412-.313-.747V89.24c0-1.399-.167-2.425-2.936-2.425-2.31 0-3.191.725-3.191 1.963h2.231c.056-.502.491-.569.815-.569.246 0 .76.056.76.482 0 1.097-4.164-.112-4.164 2.546 0 1.214.982 1.761 2.086 1.761.871 0 1.542-.179 2.2-.792l.111.624h2.401zm-17.73 0h2.321v-2.891c0-.703.134-1.295.815-1.295.615 0 .782.346.782 1.206v2.98h2.321v-2.891c0-.703.134-1.295.815-1.295.615 0 .782.346.782 1.206v2.98h2.319v-3.46c0-1.596-.535-2.555-2.242-2.555-.859 0-1.519.368-2.021 1.071-.279-.625-.859-1.071-1.908-1.071-.838 0-1.564.591-1.854 1.037v-.869h-2.131v5.847zm-1.044-5.847h-2.321v2.812c0 .905-.212 1.407-.882 1.407-.559 0-.838-.257-.838-1.061v-3.158h-2.32v3.56c0 1.674.825 2.455 2.097 2.455.96 0 1.53-.223 2.111-1.027v.859h2.153v-5.847zm-13.8 5.847h2.32v-2.98c0-.748.19-1.206.905-1.206.659 0 .815.514.815 1.094v3.092h2.321v-3.505c0-1.606-.726-2.51-2.265-2.51-.782 0-1.307.312-1.776.904v-2.924h-2.32v8.035zm-1.179 1.987c-.625-1.607-1.017-3.304-1.017-5.045 0-1.707.447-3.392 1.049-4.977h-1.986c-.535 1.317-1.216 2.902-1.216 4.944 0 2.266.614 3.94 1.205 5.078h1.965zM105.797 403.214h2.249v5.634h2.502v-5.634h2.249v-2.003h-7v2.003zm-6.089-2.003h-2.343v7.637h2.396v-2.418l-.095-1.739 2.727 4.157h2.343v-7.637h-2.396v2.429l.096 1.739-2.728-4.168zm-3.555 7.637v-1.781h-3.872v-1.2h3.151v-1.781h-3.151v-1.093h3.724v-1.781h-6.226v7.637h6.374zm-7.892-4.2h-3.425v1.652h1.103c-.128.532-.775.883-1.284.883-1.263 0-1.603-.988-1.603-2.069 0-1.347.467-2.239 1.455-2.239.647 0 1.103.34 1.283.966h2.375c-.307-1.878-1.781-2.832-3.616-2.832-2.472 0-3.999 1.676-3.999 4.116 0 2.662 1.749 3.924 3.702 3.924 1.199 0 1.888-.444 2.302-.933l.095.752h1.612v-4.22zm-13.811 4.2l.286-1.009h2.493l.297 1.009h2.492l-2.736-7.637h-2.546L72 408.848h2.45zm2.344-2.598h-1.58l.774-2.736.806 2.736zm-8.765-1.602h-3.425v1.652h1.103c-.128.532-.774.883-1.284.883-1.263 0-1.603-.988-1.603-2.069 0-1.347.467-2.239 1.455-2.239.647 0 1.103.34 1.283.966h2.376c-.308-1.878-1.782-2.832-3.617-2.832-2.472 0-3.999 1.676-3.999 4.116 0 2.662 1.75 3.924 3.702 3.924 1.199 0 1.888-.444 2.302-.933l.095.752h1.612v-4.22zm-13.885-3.437H51.8v7.637h2.396v-2.418l-.095-1.739 2.727 4.157h2.343v-7.637h-2.396v2.429l.095 1.739-2.726-4.168zm-3.894 0h-2.502v7.638h2.502v-7.638zm-3.872 2.215c-.18-1.335-1.145-2.417-3.267-2.417-1.909 0-3.309.816-3.309 2.439 0 2.918 4.392 2.122 4.392 3.279 0 .36-.414.562-1.04.562a1.38 1.38 0 0 1-.712-.19.87.87 0 0 1-.413-.604h-2.397c.053 1.378 1.368 2.555 3.384 2.555 2.1 0 3.574-.858 3.574-2.63 0-2.779-4.392-2.068-4.392-3.215 0-.276.244-.435.796-.435.245 0 .468.042.648.138.18.095.318.254.361.519h2.375zm-15.19 2.093c0 2.63 1.315 3.53 3.681 3.53 2.535 0 3.67-1.07 3.67-3.521v-4.317h-2.503v4.572c0 .827-.265 1.4-1.167 1.4-1.03 0-1.178-.647-1.178-1.4v-4.572h-2.503v4.308zm-6.429 3.329l.287-1.009h2.492l.297 1.009h2.493l-2.737-7.637h-2.545l-2.737 7.637h2.45zm2.345-2.598h-1.58l.774-2.736.806 2.736zm-5.284-2.123c-.202-1.962-1.506-3.118-3.84-3.118-2.132 0-3.807 1.537-3.807 4.01 0 2.482 1.527 4.03 4.051 4.03 2.015 0 3.426-1.187 3.649-3.159h-2.408c-.096.731-.477 1.294-1.284 1.294-1.273 0-1.506-1.009-1.506-2.08 0-1.476.53-2.229 1.411-2.229.785 0 1.283.456 1.358 1.252h2.376zM88.558 413.94c.594 1.527.965 3.141.965 4.794 0 1.623-.424 3.226-.997 4.731h1.888c.508-1.252 1.155-2.758 1.155-4.699 0-2.153-.583-3.744-1.145-4.826h-1.866zm-10.746 7.637h2.205v-2.747c0-.669.127-1.23.775-1.23.584 0 .743.328.743 1.145v2.833h2.205v-2.747c0-.669.128-1.23.775-1.23.584 0 .744.328.744 1.145v2.833h2.205v-3.288c0-1.517-.509-2.429-2.131-2.429-.818 0-1.444.351-1.921 1.019-.265-.595-.817-1.019-1.813-1.019-.797 0-1.487.563-1.763.986v-.827h-2.024v5.556zm-.999-5.557h-2.205v2.674c0 .859-.202 1.336-.839 1.336-.531 0-.796-.244-.796-1.008v-3.002h-2.205v3.384c0 1.591.784 2.333 1.993 2.333.913 0 1.454-.212 2.006-.975v.815h2.046v-5.557zm-9.429-.712h2.205v-1.569h-2.205v1.569zm2.204.712h-2.205v5.557h2.205v-5.557zm-6.512 4.126c-.722 0-.87-.679-.87-1.263 0-.616.201-1.316.934-1.316.732 0 .945.668.945 1.284-.001.649-.244 1.295-1.009 1.295m3.14 1.431v-7.637H64.01v2.642c-.467-.552-.955-.722-1.656-.722-1.325 0-2.353 1.198-2.353 3.044 0 1.571.848 2.832 2.523 2.832.712 0 1.189-.223 1.709-.9v.741h1.983zm-13.27-2.715c0 1.899 1.378 2.874 3.161 2.874 1.782 0 3.16-.954 3.16-2.991 0-1.729-1.208-2.885-3.171-2.885-1.878 0-3.15 1.072-3.15 3.002m3.181-1.517c.573-.032.934.584.934 1.4 0 1.052-.361 1.508-.955 1.508-.563 0-.956-.456-.956-1.508 0-.626.224-1.4.977-1.4m-13.684 4.232h2.205v-2.747c0-.669.128-1.23.775-1.23.584 0 .744.328.744 1.145v2.833h2.205v-2.747c0-.669.127-1.23.775-1.23.584 0 .743.328.743 1.145v2.833h2.205v-3.288c0-1.517-.509-2.429-2.131-2.429-.817 0-1.444.351-1.921 1.019-.265-.595-.816-1.019-1.813-1.019-.796 0-1.486.563-1.762.986v-.827h-2.025v5.556zm-6.609-1.727c.117 1.495 1.516 1.887 2.789 1.887 2.037 0 2.991-.785 2.991-1.939 0-2.078-3.511-1.558-3.511-2.334 0-.277.244-.395.627-.395.169 0 .329.043.446.14a.578.578 0 0 1 .212.401h2.004c-.128-1.473-1.548-1.749-2.758-1.749-1.156 0-2.63.414-2.63 1.835 0 2.155 3.405 1.445 3.405 2.335 0 .393-.361.498-.701.498a.884.884 0 0 1-.541-.17.615.615 0 0 1-.234-.509h-2.099zm-4.179.635c-.435 0-.701-.189-.701-.465 0-.72.956-.55 1.678-.9.053.763-.202 1.365-.977 1.365m3.479 1.092v-.104c-.287-.233-.297-.392-.297-.71v-2.597c0-1.33-.159-2.306-2.789-2.306-2.196 0-3.034.689-3.034 1.866h2.121c.053-.477.467-.541.775-.541.233 0 .722.053.722.458 0 1.042-3.957-.107-3.957 2.419 0 1.155.933 1.674 1.982 1.674.828 0 1.465-.17 2.091-.753l.106.594h2.28zm-7.394-7.637h-2.205v7.637h2.205v-7.637zm-6.407 6.111c-.573 0-.902-.53-.902-1.306 0-.742.361-1.252.892-1.252.584 0 .966.413.966 1.294 0 .766-.372 1.264-.956 1.264m-3.065-4.031v7.446h2.205v-2.439c.372.466.818.71 1.423.71 1.241 0 2.598-.795 2.598-2.979 0-1.528-.806-2.896-2.481-2.896-.637 0-1.433.309-1.741.986h-.022v-.827h-1.982zm-1.083 7.446c-.594-1.527-.965-3.141-.965-4.794 0-1.623.424-3.226.997-4.731h-1.888c-.509 1.252-1.155 2.758-1.155 4.699 0 2.153.583 3.744 1.145 4.826h1.866zM497.287 403.215h2.249v5.633h2.503v-5.633h2.248v-2.005h-7v2.005zm-6.086-2.005h-2.343v7.638h2.396v-2.418l-.097-1.74 2.729 4.158h2.343v-7.638h-2.396v2.43l.095 1.74-2.727-4.17zm-3.549 7.638v-1.781h-3.872v-1.2h3.15v-1.781h-3.15v-1.094h3.724v-1.781h-6.227v7.638h6.375zm-14.305 0v-2.588l-.053-1.188-.106-1.124h.021l1.39 4.9h1.74l1.39-4.9h.021l-.127 1.379-.032 1.188v2.333h2.248v-7.638h-3.022l-1.348 4.764-1.348-4.764h-3.022v7.638h2.248zm-8.642-7.638h-2.344v7.638h2.396v-2.418l-.096-1.74 2.729 4.158h2.343v-7.638h-2.396v2.43l.095 1.74-2.727-4.17zm-7.495-.2c-2.376 0-3.998 1.558-3.998 3.956 0 2.599 1.601 4.084 3.998 4.084 2.26 0 4.01-1.464 4.01-4.063 0-2.016-1.283-3.977-4.01-3.977m-.022 1.865c1.104-.031 1.528 1.071 1.528 2.111 0 1.263-.424 2.197-1.507 2.197-1.199 0-1.496-1.22-1.496-2.197.001-.965.341-2.111 1.475-2.111m-8.725 3.31c1.168 0 1.337.329 1.337 1.327 0 .679.063 1.167.128 1.336h2.534v-.232c-.297 0-.267-.34-.267-1.337 0-1.539-.486-1.729-1.293-2.026.892-.243 1.283-.986 1.283-1.867 0-1.485-.838-2.175-3.383-2.175h-3.607v7.638h2.503v-2.663h.765zm-.765-3.194h1.167c.584 0 1.01.255 1.01.797 0 .53-.414.723-1.189.723h-.987v-1.52zm-3.963-1.781h-2.502v7.638h2.502v-7.638zm-8.714 7.638h2.514l2.651-7.638h-2.524l-1.39 5.081-1.336-5.081h-2.524l2.609 7.638zm-8.6-7.638h-2.344v7.638h2.396v-2.418l-.095-1.74 2.727 4.158h2.344v-7.638h-2.396v2.43l.096 1.74-2.728-4.17zm-3.549 7.638v-1.781H419v-1.2h3.15v-1.781H419v-1.094h3.723v-1.781h-6.225v7.638h6.374z"/></g></svg>